<svg width="124" height="108" viewBox="0 0 124 108" fill="none" xmlns="http://www.w3.org/2000/svg">
<path d="M101.598 85.529C106.773 80.3321 110.909 74.1408 113.737 67.2849C117.976 57.0092 119.085 45.7021 116.924 34.7935C114.763 23.8849 109.43 13.8647 101.598 6L62 45.7645M101.598 85.529C99.0166 88.1213 96.1768 90.4661 93.1119 92.5226C83.9028 98.7018 73.0758 102 62 102C50.9243 102 40.0972 98.7018 30.8881 92.5226C27.8232 90.4661 24.9834 88.1213 22.402 85.529M101.598 85.529L62 45.7645M62 45.7645L22.402 6C14.5703 13.8647 9.23682 23.8849 7.07605 34.7935C4.91528 45.7021 6.02426 57.0092 10.2628 67.2849C13.0907 74.1408 17.227 80.3321 22.402 85.529M62 45.7645L22.402 85.529" stroke="#212438" stroke-width="12" stroke-linejoin="round"/>
</svg>
