<svg width="56" height="56" viewBox="0 0 56 56" fill="none" xmlns="http://www.w3.org/2000/svg">
<g filter="url(#filter0_d_6_4)">
<rect x="8" y="8" width="40" height="40" rx="12" fill="#16A34A" shape-rendering="crispEdges"/>
<path fill-rule="evenodd" clip-rule="evenodd" d="M19.0585 18C19.4188 18 19.7643 18.1412 20.0185 18.3925L28 26.2803L35.9815 18.3925C36.2357 18.1412 36.5812 18 36.9415 18C37.3018 18 37.6473 18.1412 37.9015 18.3925C39.859 20.327 41.1914 22.7911 41.7312 25.4728C42.271 28.1545 41.994 30.9342 40.9351 33.4606C40.2285 35.1463 39.195 36.669 37.9015 37.9473C37.2563 38.5849 36.5464 39.1618 35.7802 39.6678C33.4777 41.1881 30.7702 42 28 42C25.2298 42 22.5223 41.1882 20.2198 39.6678C19.4536 39.1618 18.7437 38.5849 18.0985 37.9473C16.805 36.669 15.7715 35.1463 15.0649 33.4606C14.006 30.9342 13.729 28.1545 14.2688 25.4728C14.8086 22.7911 16.141 20.327 18.0985 18.3925C18.3527 18.1412 18.6982 18 19.0585 18ZM26.088 28.1699L19.1164 21.2801C18.0269 22.6536 17.274 24.2661 16.9268 25.991C16.4908 28.1576 16.7146 30.4032 17.5699 32.4438C17.965 33.3864 18.4865 34.2656 19.1164 35.0596L26.088 28.1699ZM21.0275 36.9502L28 30.0595L34.9725 36.9502C34.7456 37.1263 34.5114 37.2942 34.2704 37.4534C32.4138 38.6793 30.2317 39.3333 28 39.3333C25.7683 39.3333 23.5862 38.6793 21.7296 37.4534C21.4886 37.2942 21.2544 37.1263 21.0275 36.9502ZM36.8836 35.0596L29.912 28.1699L36.8836 21.2802C37.9731 22.6536 38.726 24.2661 39.0732 25.991C39.5092 28.1576 39.2854 30.4032 38.4301 32.4438C38.035 33.3864 37.5135 34.2656 36.8836 35.0596Z" fill="white"/>
</g>
<defs>
<filter id="filter0_d_6_4" x="0" y="0" width="56" height="56" filterUnits="userSpaceOnUse" color-interpolation-filters="sRGB">
<feFlood flood-opacity="0" result="BackgroundImageFix"/>
<feColorMatrix in="SourceAlpha" type="matrix" values="0 0 0 0 0 0 0 0 0 0 0 0 0 0 0 0 0 0 127 0" result="hardAlpha"/>
<feOffset/>
<feGaussianBlur stdDeviation="4"/>
<feComposite in2="hardAlpha" operator="out"/>
<feColorMatrix type="matrix" values="0 0 0 0 0.0862745 0 0 0 0 0.639216 0 0 0 0 0.290196 0 0 0 0.5 0"/>
<feBlend mode="normal" in2="BackgroundImageFix" result="effect1_dropShadow_6_4"/>
<feBlend mode="normal" in="SourceGraphic" in2="effect1_dropShadow_6_4" result="shape"/>
</filter>
</defs>
</svg>
